<svg width="95" height="92" viewBox="0 0 95 92" fill="none" xmlns="http://www.w3.org/2000/svg">
<path fill-rule="evenodd" clip-rule="evenodd" d="M78.2339 36.2556C78.3247 36.5394 78.3918 36.8472 78.4825 37.1547C83.3212 56.0327 72.2425 75.5495 53.7822 80.7282C35.3219 85.9069 16.4202 74.7636 11.5815 55.8855C6.74278 37.0074 17.8223 17.4907 36.2826 12.312C49.0522 8.73044 62.0321 12.9667 70.4351 22.1573L76.2746 18.6876C76.8076 18.3765 77.4543 18.4436 77.914 18.8436C78.3505 19.2675 78.4851 19.9297 78.228 20.4762L74.8141 28.1259C74.9056 28.2912 74.9736 28.433 75.0651 28.5983C75.1567 28.7399 75.2489 28.9052 75.3403 29.0705L83.6497 30.111C84.2267 30.1787 84.7088 30.6258 84.821 31.2175C84.9332 31.8091 84.653 32.4273 84.1432 32.7383L78.2339 36.2556ZM67.9557 23.6406C60.2398 15.5121 48.5034 11.814 36.983 15.0565C20.0031 19.8238 9.81088 37.7718 14.2653 55.1358C18.7197 72.4998 36.1011 82.7508 53.081 77.9836C70.0608 73.2164 80.254 55.2684 75.7996 37.9044C75.7769 37.8334 75.7773 37.7862 75.7545 37.739L72.4169 39.7252C72.0925 39.9167 71.7001 39.9667 71.3542 39.874L66.5573 38.5038C66.7619 39.0949 66.9429 39.7097 67.1012 40.3247C70.2892 52.7919 62.9884 65.676 50.8203 69.0882C38.6291 72.5005 26.1508 65.1589 22.9627 52.7154C19.7748 40.2483 27.0755 27.3641 39.2436 23.952C48.0805 21.4834 57.0714 24.6525 62.5548 31.3252L63.9212 26.5074C64.0156 26.1515 64.2481 25.8421 64.5493 25.6745L67.9557 23.6406ZM61.5886 34.7422C56.9611 27.8276 48.3654 24.3242 39.9449 26.6956C29.2573 29.6963 22.8429 41.0114 25.6467 51.9408C28.4503 62.8939 39.4093 69.3454 50.12 66.3446C60.8075 63.3439 67.222 52.0284 64.4183 41.0753C64.1017 39.8452 63.6695 38.6394 63.1675 37.5288L62.7522 37.4128L55.3362 41.9108C55.5414 42.4071 55.7234 42.9267 55.859 43.4708C57.442 49.5978 53.85 55.9217 47.8585 57.5917C41.89 59.2852 35.7655 55.6724 34.1825 49.5454C32.6224 43.442 36.2145 37.119 42.183 35.4255C46.6939 34.167 51.2807 35.9162 53.9405 39.4544L61.5655 34.8377L61.5886 34.7422ZM51.5305 40.9382C49.4886 38.4388 46.1692 37.2495 42.8842 38.1691C38.3963 39.4512 35.6905 44.2054 36.8663 48.7948C38.065 53.4078 42.6693 56.1292 47.1573 54.8471C51.6682 53.5886 54.3743 48.8344 53.1987 44.2213C53.1079 43.9375 53.0163 43.6534 52.9255 43.3696L44.9537 48.2031C44.2816 48.6098 43.4284 48.3775 43.0625 47.7163C42.6737 47.0315 42.8858 46.1538 43.5578 45.7708L51.5305 40.9382ZM73.0043 25.3407L72.0457 27.5258L71.1331 29.5691C70.9461 29.973 70.9673 30.4463 71.173 30.8479C71.3788 31.2258 71.7699 31.5078 72.2085 31.5526L73.5466 31.7104L76.8014 32.1179L79.2016 32.412L77.3477 33.5122L76.676 33.9196L71.5543 36.9585L65.0746 35.1243L64.4287 34.9393L66.4313 27.8198L73.893 23.3688L73.0043 25.3407Z" fill="#FF267E"/>
<g clip-path="url(#clip0_221_5611)" filter="url(#filter0_f_221_5611)">
<g filter="url(#filter1_f_221_5611)">
<path fill-rule="evenodd" clip-rule="evenodd" d="M77.9819 35.4441C78.0728 35.7279 78.1398 36.0357 78.2305 36.3431C83.0692 55.2212 71.9906 74.738 53.5303 79.9167C35.0699 85.0953 16.1682 73.952 11.3295 55.074C6.49083 36.1959 17.5703 16.6791 36.0307 11.5005C48.8002 7.91892 61.7802 12.1552 70.1831 21.3458L76.0227 17.8761C76.5556 17.5649 77.2023 17.632 77.6621 18.0321C78.0986 18.456 78.2332 19.1182 77.9761 19.6647L74.5622 27.3144C74.6537 27.4797 74.7216 27.6215 74.8131 27.7868C74.9047 27.9284 74.9969 28.0937 75.0884 28.259L83.3977 29.2995C83.9748 29.3671 84.4568 29.8143 84.5691 30.4059C84.6813 30.9976 84.4011 31.6158 83.8912 31.9268L77.9819 35.4441ZM67.7037 22.8291C59.9878 14.7006 48.2514 11.0025 36.731 14.245C19.7512 19.0122 9.55893 36.9603 14.0133 54.3243C18.4677 71.6883 35.8492 81.9393 52.829 77.1721C69.8088 72.4049 80.002 54.4568 75.5476 37.0928C75.5249 37.0219 75.5253 36.9747 75.5025 36.9274L72.165 38.9137C71.8406 39.1052 71.4482 39.1552 71.1022 39.0625L66.3053 37.6923C66.5099 38.2834 66.691 38.8981 66.8493 39.5132C70.0372 51.9803 62.7364 64.8645 50.5683 68.2767C38.3772 71.689 25.8989 64.3474 22.7108 51.9039C19.5228 39.4368 26.8236 26.5526 38.9917 23.1404C47.8285 20.6719 56.8194 23.841 62.3029 30.5137L63.6693 25.6959C63.7636 25.34 63.9962 25.0306 64.2973 24.863L67.7037 22.8291ZM61.3367 33.9307C56.7091 27.016 48.1135 23.5127 39.6929 25.8841C29.0053 28.8848 22.5909 40.1998 25.3947 51.1292C28.1984 62.0823 39.1573 68.5339 49.868 65.533C60.5556 62.5324 66.97 51.2169 64.1664 40.2638C63.8498 39.0337 63.4176 37.8279 62.9156 36.7173L62.5003 36.6013L55.0843 41.0992C55.2894 41.5956 55.4715 42.1152 55.6071 42.6593C57.1901 48.7863 53.598 55.1102 47.6066 56.7802C41.6381 58.4737 35.5135 54.8609 33.9305 48.7339C32.3705 42.6304 35.9626 36.3075 41.931 34.614C46.442 33.3554 51.0287 35.1047 53.6885 38.6429L61.3136 34.0262L61.3367 33.9307ZM51.2786 40.1267C49.2367 37.6273 45.9172 36.438 42.6323 37.3576C38.1443 38.6397 35.4386 43.3939 36.6143 47.9833C37.813 52.5962 42.4173 55.3177 46.9053 54.0356C51.4163 52.7771 54.1223 48.0229 52.9467 43.4098C52.8559 43.126 52.7644 42.8419 52.6735 42.5581L44.7017 47.3915C44.0296 47.7983 43.1765 47.566 42.8106 46.9048C42.4217 46.22 42.6339 45.3423 43.3058 44.9593L51.2786 40.1267ZM72.7523 24.5292L71.7938 26.7143L70.8812 28.7576C70.6942 29.1615 70.7154 29.6348 70.921 30.0364C71.1268 30.4142 71.5179 30.6963 71.9565 30.7411L73.2946 30.8989L76.5495 31.3064L78.9496 31.6004L77.0957 32.7006L76.424 33.1081L71.3024 36.147L64.8226 34.3128L64.1767 34.1278L66.1793 27.0083L73.6411 22.5573L72.7523 24.5292Z" fill="#FF267E"/>
</g>
</g>
<defs>
<filter id="filter0_f_221_5611" x="0" y="-2" width="95" height="97" filterUnits="userSpaceOnUse" color-interpolation-filters="sRGB">
<feFlood flood-opacity="0" result="BackgroundImageFix"/>
<feBlend mode="normal" in="SourceGraphic" in2="BackgroundImageFix" result="shape"/>
<feGaussianBlur stdDeviation="5" result="effect1_foregroundBlur_221_5611"/>
</filter>
<filter id="filter1_f_221_5611" x="-1.80469" y="-1.76709" width="98.3984" height="94.9526" filterUnits="userSpaceOnUse" color-interpolation-filters="sRGB">
<feFlood flood-opacity="0" result="BackgroundImageFix"/>
<feBlend mode="normal" in="SourceGraphic" in2="BackgroundImageFix" result="shape"/>
<feGaussianBlur stdDeviation="6" result="effect1_foregroundBlur_221_5611"/>
</filter>
<clipPath id="clip0_221_5611">
<rect width="75" height="77" fill="white" transform="translate(10 8)"/>
</clipPath>
</defs>
</svg>
