<svg width="97" height="100" viewBox="0 0 97 100" fill="none" xmlns="http://www.w3.org/2000/svg">
<path fill-rule="evenodd" clip-rule="evenodd" d="M56.7131 78.1246C58.5305 82.8762 60.939 85.1535 63.1068 86.2264C66.6322 87.9563 69.7858 86.5987 70.0924 86.4454C70.4865 86.2921 76.0481 83.8616 80.099 80.7522C82.0697 79.2414 83.6461 77.5555 84.303 75.8913C85.0694 73.9863 84.5444 71.4683 83.5153 69.1692C82.4204 66.7605 80.8654 64.5926 80.2085 63.7386C80.2304 60.3008 79.8364 55.3961 78.5226 51.7612C78.5007 51.7175 78.4787 51.6733 78.4568 51.6295C78.4568 51.6295 73.7486 42.1922 69.5663 36.2582C68.4277 34.6816 67.333 33.3235 66.3477 32.4476C65.5156 31.6812 64.7276 31.2652 64.0707 31.1338C62.4504 30.8272 61.355 31.2219 60.5886 31.8788C59.8442 32.5138 59.385 33.4986 59.2098 34.6373C59.2098 34.7687 59.1872 34.9002 59.1653 35.0316C58.3114 33.9149 57.3486 32.8424 56.3632 32.0541C54.6115 30.6747 52.7718 30.2146 51.1953 31.1124C49.6406 32.0321 48.918 33.2364 48.6771 34.5064L48.5676 34.3969C46.6845 32.8423 44.4507 32.0102 42.3048 32.9736C40.7283 33.6962 39.8746 34.7688 39.4805 36.017L34.8163 28.1777C34.7944 28.112 34.7506 28.047 34.7068 28.0032C33.4149 26.4486 31.8823 25.8793 30.5028 25.923C27.2183 26.0106 24.4591 29.6891 26.1671 33.3021C27.3276 35.7545 32.8675 46.1119 36.787 53.4035C35.9549 52.8123 35.0354 52.2211 34.0063 51.6518C31.3568 50.1628 29.2769 50.2283 27.7879 50.929C26.1676 51.6735 25.182 53.162 24.8755 54.6728C24.5908 56.0961 24.9189 57.4982 25.7291 58.3303C29.8457 62.5783 32.2326 65.3811 32.4735 65.6657C39.371 74.7748 53.2315 77.5553 56.7131 78.1246ZM41.145 43.9434L32.6266 29.601C31.9697 28.8565 31.2693 28.5288 30.5687 28.5507C28.9702 28.5945 27.7222 30.4333 28.5543 32.185C30.3499 36.017 43.1157 59.5996 43.1157 59.5996C43.4441 60.2127 43.2245 61.001 42.6333 61.3514C42.0202 61.7236 41.2324 61.5269 40.8601 60.9357C40.8601 60.9357 38.386 57.126 32.7147 53.9509C31.379 53.1845 30.2616 52.9649 29.3857 53.1401C28.269 53.3809 27.6347 54.3011 27.4595 55.1989C27.35 55.7025 27.3493 56.2058 27.634 56.4904C32.0571 61.0888 34.5101 64.0012 34.5101 64.0012C34.532 64.0231 34.5318 64.0452 34.5537 64.0671C41.8891 73.7673 57.8302 75.6287 57.8302 75.6287C58.3338 75.6944 58.7498 76.0229 58.925 76.5046C60.4359 80.8183 62.3843 82.9417 64.2675 83.8614C66.7637 85.0876 68.9975 84.059 68.9975 84.059C68.9975 84.059 69.0192 84.0587 69.0411 84.0368C69.0411 84.0368 73.0919 82.3292 76.7486 79.8986C79.004 78.4096 81.1723 76.701 81.873 74.9274C82.3985 73.5917 81.8511 71.8622 81.1066 70.2418C79.8585 67.4609 77.8657 65.0302 77.8657 65.0302C77.6687 64.7893 77.559 64.4831 77.5809 64.1766C77.6247 61.0015 77.3404 56.2282 76.0704 52.7466C75.6543 51.8926 71.3188 43.287 67.4211 37.7909C66.4139 36.3676 65.4499 35.1633 64.5959 34.3969C64.2018 34.0466 63.8957 33.7616 63.5892 33.7178C62.998 33.6083 62.5814 33.63 62.2968 33.8709C61.7712 34.3307 61.7493 35.2069 61.7493 36.0828C61.7712 38.0535 62.4285 40.1337 62.4285 40.1337C62.6475 40.7906 62.3185 41.4915 61.6835 41.7324C61.0485 41.9951 60.3264 41.7544 60.0198 41.1413C60.0198 41.1413 58.115 37.5497 55.8158 35.1411C55.137 34.4185 54.4363 33.8059 53.7356 33.4774C53.2977 33.2804 52.9032 33.1704 52.5091 33.3893C51.0858 34.2214 51.0854 35.5788 51.392 36.7175C51.611 37.4839 51.9615 38.1847 52.2242 38.6446C52.5089 39.1044 52.6844 39.3673 52.6844 39.3673C53.0348 39.9804 52.8377 40.7472 52.2465 41.1413C51.6553 41.5136 50.8885 41.3599 50.4725 40.7906C50.4725 40.7906 50.2534 40.506 49.9687 40.0242C49.3994 39.1265 48.2613 37.5718 46.8818 36.4113C45.8088 35.5354 44.604 34.8126 43.3997 35.36C41.9545 36.017 41.7362 37.3087 41.9114 38.5787C42.1084 40.002 42.7652 41.4258 43.2688 42.3893L43.9916 43.615C44.3638 44.2281 44.1662 45.0167 43.575 45.3889C42.9619 45.7612 42.1738 45.6081 41.7796 45.0169C41.7796 45.0169 41.4953 44.6003 41.145 43.9434ZM19.1165 32.0319L15.175 36.5866C14.6933 37.134 14.7593 37.9661 15.3068 38.4478C15.8542 38.9077 16.6859 38.864 17.1457 38.2947L21.1094 33.7614C21.5692 33.214 21.5251 32.3819 20.9777 31.9002C20.4303 31.4185 19.5982 31.4845 19.1165 32.0319ZM19.3354 24.6306H13.3138C12.5912 24.6306 12 25.2218 12 25.9444C12 26.667 12.5912 27.2582 13.3138 27.2582H19.3354C20.058 27.2582 20.6492 26.667 20.6492 25.9444C20.6492 25.2218 20.058 24.6306 19.3354 24.6306ZM37.1154 24.7837L42.9403 23.2073C43.641 23.0322 44.0569 22.3094 43.8598 21.6087C43.6847 20.908 42.9619 20.4926 42.2612 20.6678L36.4372 22.2442C35.7365 22.4194 35.3197 23.1422 35.5168 23.8429C35.692 24.5436 36.4148 24.9589 37.1154 24.7837ZM24.8755 19.2659L21.8758 14.0543C21.5036 13.4193 20.6927 13.2005 20.0796 13.5728C19.4446 13.9231 19.2258 14.7331 19.598 15.3681L22.5977 20.5797C22.97 21.2147 23.7808 21.4116 24.3939 21.0613C25.0289 20.689 25.2477 19.9009 24.8755 19.2659ZM32.4076 19.4849L33.9627 13.6609C34.1378 12.9602 33.7216 12.237 33.0209 12.04C32.3202 11.8648 31.5975 12.281 31.4223 12.9817L29.8681 18.7844C29.6711 19.4851 30.0869 20.2073 30.7876 20.4044C31.4883 20.6014 32.2106 20.1856 32.4076 19.4849Z" fill="#FF267E"/>
<g filter="url(#filter0_f_221_5605)">
<path fill-rule="evenodd" clip-rule="evenodd" d="M56.7131 78.1246C58.5305 82.8762 60.939 85.1535 63.1068 86.2264C66.6322 87.9563 69.7858 86.5987 70.0924 86.4454C70.4865 86.2921 76.0481 83.8616 80.099 80.7522C82.0697 79.2414 83.6461 77.5555 84.303 75.8913C85.0694 73.9863 84.5444 71.4683 83.5153 69.1692C82.4204 66.7605 80.8654 64.5926 80.2085 63.7386C80.2304 60.3008 79.8364 55.3961 78.5226 51.7612C78.5007 51.7175 78.4787 51.6733 78.4568 51.6295C78.4568 51.6295 73.7486 42.1922 69.5663 36.2582C68.4277 34.6816 67.333 33.3235 66.3477 32.4476C65.5156 31.6812 64.7276 31.2652 64.0707 31.1338C62.4504 30.8272 61.355 31.2219 60.5886 31.8788C59.8442 32.5138 59.385 33.4986 59.2098 34.6373C59.2098 34.7687 59.1872 34.9002 59.1653 35.0316C58.3114 33.9149 57.3486 32.8424 56.3632 32.0541C54.6115 30.6747 52.7718 30.2146 51.1953 31.1124C49.6406 32.0321 48.918 33.2364 48.6771 34.5064L48.5676 34.3969C46.6845 32.8423 44.4507 32.0102 42.3048 32.9736C40.7283 33.6962 39.8746 34.7688 39.4805 36.017L34.8163 28.1777C34.7944 28.112 34.7506 28.047 34.7068 28.0032C33.4149 26.4486 31.8823 25.8793 30.5028 25.923C27.2183 26.0106 24.4591 29.6891 26.1671 33.3021C27.3276 35.7545 32.8675 46.1119 36.787 53.4035C35.9549 52.8123 35.0354 52.2211 34.0063 51.6518C31.3568 50.1628 29.2769 50.2283 27.7879 50.929C26.1676 51.6735 25.182 53.162 24.8755 54.6728C24.5908 56.0961 24.9189 57.4982 25.7291 58.3303C29.8457 62.5783 32.2326 65.3811 32.4735 65.6657C39.371 74.7748 53.2315 77.5553 56.7131 78.1246ZM41.145 43.9434L32.6266 29.601C31.9697 28.8565 31.2693 28.5288 30.5687 28.5507C28.9702 28.5945 27.7222 30.4333 28.5543 32.185C30.3499 36.017 43.1157 59.5996 43.1157 59.5996C43.4441 60.2127 43.2245 61.001 42.6333 61.3514C42.0202 61.7236 41.2324 61.5269 40.8601 60.9357C40.8601 60.9357 38.386 57.126 32.7147 53.9509C31.379 53.1845 30.2616 52.9649 29.3857 53.1401C28.269 53.3809 27.6347 54.3011 27.4595 55.1989C27.35 55.7025 27.3493 56.2058 27.634 56.4904C32.0571 61.0888 34.5101 64.0012 34.5101 64.0012C34.532 64.0231 34.5318 64.0452 34.5537 64.0671C41.8891 73.7673 57.8302 75.6287 57.8302 75.6287C58.3338 75.6944 58.7498 76.0229 58.925 76.5046C60.4359 80.8183 62.3843 82.9417 64.2675 83.8614C66.7637 85.0876 68.9975 84.059 68.9975 84.059C68.9975 84.059 69.0192 84.0587 69.0411 84.0368C69.0411 84.0368 73.0919 82.3292 76.7486 79.8986C79.004 78.4096 81.1723 76.701 81.873 74.9274C82.3985 73.5917 81.8511 71.8622 81.1066 70.2418C79.8585 67.4609 77.8657 65.0302 77.8657 65.0302C77.6687 64.7893 77.559 64.4831 77.5809 64.1766C77.6247 61.0015 77.3404 56.2282 76.0704 52.7466C75.6543 51.8926 71.3188 43.287 67.4211 37.7909C66.4139 36.3676 65.4499 35.1633 64.5959 34.3969C64.2018 34.0466 63.8957 33.7616 63.5892 33.7178C62.998 33.6083 62.5814 33.63 62.2968 33.8709C61.7712 34.3307 61.7493 35.2069 61.7493 36.0828C61.7712 38.0535 62.4285 40.1337 62.4285 40.1337C62.6475 40.7906 62.3185 41.4915 61.6835 41.7324C61.0485 41.9951 60.3264 41.7544 60.0198 41.1413C60.0198 41.1413 58.115 37.5497 55.8158 35.1411C55.137 34.4185 54.4363 33.8059 53.7356 33.4774C53.2977 33.2804 52.9032 33.1704 52.5091 33.3893C51.0858 34.2214 51.0854 35.5788 51.392 36.7175C51.611 37.4839 51.9615 38.1847 52.2242 38.6446C52.5089 39.1044 52.6844 39.3673 52.6844 39.3673C53.0348 39.9804 52.8377 40.7472 52.2465 41.1413C51.6553 41.5136 50.8885 41.3599 50.4725 40.7906C50.4725 40.7906 50.2534 40.506 49.9687 40.0242C49.3994 39.1265 48.2613 37.5718 46.8818 36.4113C45.8088 35.5354 44.604 34.8126 43.3997 35.36C41.9545 36.017 41.7362 37.3087 41.9114 38.5787C42.1084 40.002 42.7652 41.4258 43.2688 42.3893L43.9916 43.615C44.3638 44.2281 44.1662 45.0167 43.575 45.3889C42.9619 45.7612 42.1738 45.6081 41.7796 45.0169C41.7796 45.0169 41.4953 44.6003 41.145 43.9434ZM19.1165 32.0319L15.175 36.5866C14.6933 37.134 14.7593 37.9661 15.3068 38.4478C15.8542 38.9077 16.6859 38.864 17.1457 38.2947L21.1094 33.7614C21.5692 33.214 21.5251 32.3819 20.9777 31.9002C20.4303 31.4185 19.5982 31.4845 19.1165 32.0319ZM19.3354 24.6306H13.3138C12.5912 24.6306 12 25.2218 12 25.9444C12 26.667 12.5912 27.2582 13.3138 27.2582H19.3354C20.058 27.2582 20.6492 26.667 20.6492 25.9444C20.6492 25.2218 20.058 24.6306 19.3354 24.6306ZM37.1154 24.7837L42.9403 23.2073C43.641 23.0322 44.0569 22.3094 43.8598 21.6087C43.6847 20.908 42.9619 20.4926 42.2612 20.6678L36.4372 22.2442C35.7365 22.4194 35.3197 23.1422 35.5168 23.8429C35.692 24.5436 36.4148 24.9589 37.1154 24.7837ZM24.8755 19.2659L21.8758 14.0543C21.5036 13.4193 20.6927 13.2005 20.0796 13.5728C19.4446 13.9231 19.2258 14.7331 19.598 15.3681L22.5977 20.5797C22.97 21.2147 23.7808 21.4116 24.3939 21.0613C25.0289 20.689 25.2477 19.9009 24.8755 19.2659ZM32.4076 19.4849L33.9627 13.6609C34.1378 12.9602 33.7216 12.237 33.0209 12.04C32.3202 11.8648 31.5975 12.281 31.4223 12.9817L29.8681 18.7844C29.6711 19.4851 30.0869 20.2073 30.7876 20.4044C31.4883 20.6014 32.2106 20.1856 32.4076 19.4849Z" fill="#FF267E"/>
</g>
<defs>
<filter id="filter0_f_221_5605" x="0" y="0" width="96.668" height="99.0967" filterUnits="userSpaceOnUse" color-interpolation-filters="sRGB">
<feFlood flood-opacity="0" result="BackgroundImageFix"/>
<feBlend mode="normal" in="SourceGraphic" in2="BackgroundImageFix" result="shape"/>
<feGaussianBlur stdDeviation="6" result="effect1_foregroundBlur_221_5605"/>
</filter>
</defs>
</svg>
