<svg width="87" height="87" viewBox="0 0 87 87" fill="none" xmlns="http://www.w3.org/2000/svg">
<path fill-rule="evenodd" clip-rule="evenodd" d="M43.5 23.7077C42.509 21.0332 40.9749 17.6903 38.8749 15.3024C37.3412 13.607 35.5483 12.3892 33.4719 12.0788C31.4191 11.7683 29.0833 12.3407 26.4642 14.4182C23.4676 16.8061 22.7597 19.9342 24.2227 22.7758C25.0249 24.3041 26.5111 25.8092 28.7998 27.0032H16.6251C14.0768 27.0032 12 29.1043 12 31.7071V36.0772C12 38.6561 14.0528 40.7573 16.6011 40.7812C16.2944 41.4259 16.1292 42.1419 16.1292 42.906V70.0087C16.1292 72.7548 18.3468 75 21.0603 75H65.9397C68.6532 75 70.8708 72.7548 70.8708 70.0087V42.906C70.8708 42.1419 70.7056 41.4259 70.3989 40.7812C72.9472 40.7573 75 38.6561 75 36.0772V31.7071C75 29.1043 72.9232 27.0032 70.3749 27.0032H58.2002C60.4889 25.8092 61.9751 24.3041 62.7773 22.7758C64.2403 19.9342 63.5324 16.8061 60.5358 14.4182C57.9167 12.3407 55.5809 11.7683 53.5281 12.0788C51.4517 12.3892 49.6588 13.607 48.1251 15.3024C46.0251 17.6903 44.491 21.0332 43.5 23.7077ZM36.7043 40.7812V72.1345H21.0603C19.9041 72.1345 18.9607 71.1788 18.9607 70.0087V42.906C18.9607 41.736 19.9041 40.7812 21.0603 40.7812H36.7043ZM39.5358 40.7812V72.1345H47.4642V40.7812H39.5358ZM50.2957 40.7812H65.9397C67.0959 40.7812 68.0393 41.736 68.0393 42.906V70.0087C68.0393 71.1788 67.0959 72.1345 65.9397 72.1345H50.2957V40.7812ZM36.7043 29.8686V37.9157H16.6251C15.6341 37.9157 14.8315 37.104 14.8315 36.0772V31.7071C14.8315 30.7042 15.6341 29.8686 16.6251 29.8686H36.7043ZM47.4642 37.9157V29.8686H39.5358V37.9157H47.4642ZM50.2957 29.8686H70.3749C71.3659 29.8686 72.1685 30.7042 72.1685 31.7071V36.0772C72.1685 37.104 71.3659 37.9157 70.3749 37.9157H50.2957V29.8686ZM45.3637 26.9789C46.1187 24.5194 47.7004 20.0777 50.2487 17.2361C51.2869 16.0421 52.4897 15.1349 53.929 14.92C55.3684 14.7051 56.9732 15.2306 58.7901 16.6634C59.8991 17.5708 60.5594 18.5731 60.6537 19.6716C60.7481 20.7222 60.2528 21.7735 59.309 22.7525C57.0438 25.021 52.4423 26.7162 45.3637 26.9789ZM41.6363 26.9789C34.5577 26.7162 29.9562 25.021 27.691 22.7525C26.7472 21.7735 26.2519 20.7222 26.3463 19.6716C26.4406 18.5731 27.1009 17.5708 28.2099 16.6634C30.0268 15.2306 31.6316 14.7051 33.071 14.92C34.5103 15.1349 35.7135 16.0421 36.7753 17.2361C39.3 20.0777 40.8813 24.5194 41.6363 26.9789Z" fill="#FF267E"/>
<g filter="url(#filter0_f_221_5618)">
<path fill-rule="evenodd" clip-rule="evenodd" d="M43.5 23.7077C42.509 21.0332 40.9749 17.6903 38.8749 15.3024C37.3412 13.607 35.5483 12.3892 33.4719 12.0788C31.4191 11.7683 29.0833 12.3407 26.4642 14.4182C23.4676 16.8061 22.7597 19.9342 24.2227 22.7758C25.0249 24.3041 26.5111 25.8092 28.7998 27.0032H16.6251C14.0768 27.0032 12 29.1043 12 31.7071V36.0772C12 38.6561 14.0528 40.7573 16.6011 40.7812C16.2944 41.4259 16.1292 42.1419 16.1292 42.906V70.0087C16.1292 72.7548 18.3468 75 21.0603 75H65.9397C68.6532 75 70.8708 72.7548 70.8708 70.0087V42.906C70.8708 42.1419 70.7056 41.4259 70.3989 40.7812C72.9472 40.7573 75 38.6561 75 36.0772V31.7071C75 29.1043 72.9232 27.0032 70.3749 27.0032H58.2002C60.4889 25.8092 61.9751 24.3041 62.7773 22.7758C64.2403 19.9342 63.5324 16.8061 60.5358 14.4182C57.9167 12.3407 55.5809 11.7683 53.5281 12.0788C51.4517 12.3892 49.6588 13.607 48.1251 15.3024C46.0251 17.6903 44.491 21.0332 43.5 23.7077ZM36.7043 40.7812V72.1345H21.0603C19.9041 72.1345 18.9607 71.1788 18.9607 70.0087V42.906C18.9607 41.736 19.9041 40.7812 21.0603 40.7812H36.7043ZM39.5358 40.7812V72.1345H47.4642V40.7812H39.5358ZM50.2957 40.7812H65.9397C67.0959 40.7812 68.0393 41.736 68.0393 42.906V70.0087C68.0393 71.1788 67.0959 72.1345 65.9397 72.1345H50.2957V40.7812ZM36.7043 29.8686V37.9157H16.6251C15.6341 37.9157 14.8315 37.104 14.8315 36.0772V31.7071C14.8315 30.7042 15.6341 29.8686 16.6251 29.8686H36.7043ZM47.4642 37.9157V29.8686H39.5358V37.9157H47.4642ZM50.2957 29.8686H70.3749C71.3659 29.8686 72.1685 30.7042 72.1685 31.7071V36.0772C72.1685 37.104 71.3659 37.9157 70.3749 37.9157H50.2957V29.8686ZM45.3637 26.9789C46.1187 24.5194 47.7004 20.0777 50.2487 17.2361C51.2869 16.0421 52.4897 15.1349 53.929 14.92C55.3684 14.7051 56.9732 15.2306 58.7901 16.6634C59.8991 17.5708 60.5594 18.5731 60.6537 19.6716C60.7481 20.7222 60.2528 21.7735 59.309 22.7525C57.0438 25.021 52.4423 26.7162 45.3637 26.9789ZM41.6363 26.9789C34.5577 26.7162 29.9562 25.021 27.691 22.7525C26.7472 21.7735 26.2519 20.7222 26.3463 19.6716C26.4406 18.5731 27.1009 17.5708 28.2099 16.6634C30.0268 15.2306 31.6316 14.7051 33.071 14.92C34.5103 15.1349 35.7135 16.0421 36.7753 17.2361C39.3 20.0777 40.8813 24.5194 41.6363 26.9789Z" fill="#FF267E"/>
</g>
<defs>
<filter id="filter0_f_221_5618" x="0" y="0" width="87" height="87" filterUnits="userSpaceOnUse" color-interpolation-filters="sRGB">
<feFlood flood-opacity="0" result="BackgroundImageFix"/>
<feBlend mode="normal" in="SourceGraphic" in2="BackgroundImageFix" result="shape"/>
<feGaussianBlur stdDeviation="6" result="effect1_foregroundBlur_221_5618"/>
</filter>
</defs>
</svg>
