<svg width="94" height="100" viewBox="0 0 94 100" fill="none" xmlns="http://www.w3.org/2000/svg">
<path fill-rule="evenodd" clip-rule="evenodd" d="M36.7885 56.7073C36.6216 56.6864 36.4542 56.6657 36.2873 56.6657H22.8713C21.2021 56.6657 19.8662 58.0225 19.8662 59.6709V74.5058C19.8662 74.6936 19.866 74.8606 19.9078 75.0275H14.2537C13.0017 75.0275 12 76.0289 12 77.2599V84.8139C12 86.045 13.0017 87.0464 14.2537 87.0464H79.6462C80.8982 87.0464 81.8999 86.045 81.8999 84.8139V77.2599C81.8999 76.0289 80.8982 75.0275 79.6462 75.0275H73.1151C73.136 74.8606 73.1575 74.6936 73.1575 74.5058V51.7419C73.1575 50.0935 71.8012 48.7368 70.132 48.7368H56.7356C56.5687 48.7368 56.4021 48.7575 56.2352 48.7784V42.7697C56.2352 41.1213 54.8789 39.7646 53.2096 39.7646H39.8141C38.1448 39.7646 36.7885 41.1213 36.7885 42.7697V56.7073ZM79.396 77.5314H14.5039V84.5425H79.396V77.5314ZM36.7885 59.6709V74.5058C36.7885 74.798 36.5585 75.0275 36.2873 75.0275H22.8713C22.6001 75.0275 22.3701 74.798 22.3701 74.5058V59.6709C22.3701 59.3996 22.6001 59.1696 22.8713 59.1696H36.2873C36.5585 59.1696 36.7885 59.3996 36.7885 59.6709ZM70.132 75.0275H56.7356C56.4643 75.0275 56.2352 74.798 56.2352 74.5058V51.7419C56.2352 51.4707 56.4643 51.2407 56.7356 51.2407H70.132C70.4241 51.2407 70.6536 51.4707 70.6536 51.7419V74.5058C70.6536 74.798 70.4241 75.0275 70.132 75.0275ZM53.2096 75.0275H39.8141C39.5219 75.0275 39.2924 74.798 39.2924 74.5058V42.7697C39.2924 42.4985 39.5219 42.2684 39.8141 42.2684H53.2096C53.5018 42.2684 53.7313 42.4985 53.7313 42.7697V74.5058C53.7313 74.798 53.5018 75.0275 53.2096 75.0275ZM31.5306 29.1859L28.6509 34.1724C28.3171 34.7566 28.5047 35.5293 29.1098 35.884C29.7149 36.2179 30.4868 36.0086 30.8206 35.4243L33.7003 30.4378C34.0341 29.8535 33.8256 29.0817 33.2414 28.727C32.6363 28.3931 31.8644 28.6016 31.5306 29.1859ZM45.3223 16.8751L43.2357 20.9024L38.7496 21.653C37.9776 21.7782 37.3514 22.3214 37.1219 23.0517C36.8924 23.782 37.0807 24.5749 37.6232 25.1382L40.7946 28.3724L40.127 32.8585C40.0019 33.6097 40.3354 34.3814 40.9405 34.8196C41.5664 35.2786 42.4012 35.3409 43.0898 35.007L47.1374 32.9629L51.2062 35.007C51.8948 35.3409 52.7092 35.2786 53.3352 34.8196C53.9611 34.3814 54.2741 33.6097 54.1698 32.8585L53.4811 28.3724L56.6737 25.1382C57.2162 24.5749 57.4036 23.782 57.1741 23.0517C56.9237 22.3214 56.2976 21.7782 55.5464 21.653L51.0603 20.9024L48.9737 16.8751C48.619 16.1866 47.9094 15.7691 47.1374 15.7691C46.3654 15.7691 45.677 16.1866 45.3223 16.8751ZM60.784 30.7923L64.8528 34.8611C65.3327 35.341 66.1256 35.341 66.6264 34.8611C67.1063 34.3604 67.1063 33.5675 66.6264 33.0876L62.5576 29.0188C62.0777 28.5389 61.2848 28.5389 60.784 29.0188C60.3041 29.5195 60.3041 30.3124 60.784 30.7923ZM47.1374 18.7946L49.1196 22.6132C49.3074 22.9679 49.6418 23.2181 50.0382 23.2807L54.2945 23.9906L51.269 27.0577C50.9768 27.329 50.8518 27.7249 50.9144 28.1214L51.5616 32.3785L47.7014 30.459C47.3467 30.2712 46.9289 30.2712 46.5742 30.459L42.7352 32.3785L43.3816 28.1214C43.4233 27.7249 43.2983 27.329 43.027 27.0577L40.0015 23.9906L44.2586 23.2807C44.6342 23.2181 44.9882 22.9679 45.1552 22.6132L47.1374 18.7946ZM30.6747 22.9474H24.9367C24.2481 22.9474 23.6848 23.5107 23.6848 24.1993C23.6848 24.8879 24.2481 25.4512 24.9367 25.4512H30.6747C31.3633 25.4512 31.9267 24.8879 31.9267 24.1993C31.9267 23.5107 31.3633 22.9474 30.6747 22.9474ZM63.6213 25.0959H69.3593C70.0479 25.0959 70.6113 24.5325 70.6113 23.8439C70.6113 23.1554 70.0479 22.592 69.3593 22.592H63.6213C62.9118 22.592 62.3693 23.1554 62.3693 23.8439C62.3693 24.5325 62.9118 25.0959 63.6213 25.0959ZM62.7663 18.8574L65.6247 13.8708C65.9794 13.2866 65.7709 12.5139 65.1658 12.1592C64.5816 11.8253 63.8092 12.0346 63.4754 12.6189L60.5957 17.6054C60.241 18.1897 60.4503 18.9615 61.0554 19.3162C61.6605 19.6501 62.4115 19.4416 62.7663 18.8574ZM33.4916 17.2509L29.444 13.1821C28.9432 12.7022 28.1503 12.7022 27.6704 13.1821C27.1696 13.6828 27.1696 14.4757 27.6704 14.9557L31.718 19.0245C32.2188 19.5044 33.0117 19.5044 33.4916 19.0245C33.9924 18.5237 33.9924 17.7308 33.4916 17.2509Z" fill="#FF267E"/>
<g filter="url(#filter0_f_221_5615)">
<path fill-rule="evenodd" clip-rule="evenodd" d="M36.7885 56.7073C36.6216 56.6864 36.4542 56.6657 36.2873 56.6657H22.8713C21.2021 56.6657 19.8662 58.0225 19.8662 59.6709V74.5058C19.8662 74.6936 19.866 74.8606 19.9078 75.0275H14.2537C13.0017 75.0275 12 76.0289 12 77.2599V84.8139C12 86.045 13.0017 87.0464 14.2537 87.0464H79.6462C80.8982 87.0464 81.8999 86.045 81.8999 84.8139V77.2599C81.8999 76.0289 80.8982 75.0275 79.6462 75.0275H73.1151C73.136 74.8606 73.1575 74.6936 73.1575 74.5058V51.7419C73.1575 50.0935 71.8012 48.7368 70.132 48.7368H56.7356C56.5687 48.7368 56.4021 48.7575 56.2352 48.7784V42.7697C56.2352 41.1213 54.8789 39.7646 53.2096 39.7646H39.8141C38.1448 39.7646 36.7885 41.1213 36.7885 42.7697V56.7073ZM79.396 77.5314H14.5039V84.5425H79.396V77.5314ZM36.7885 59.6709V74.5058C36.7885 74.798 36.5585 75.0275 36.2873 75.0275H22.8713C22.6001 75.0275 22.3701 74.798 22.3701 74.5058V59.6709C22.3701 59.3996 22.6001 59.1696 22.8713 59.1696H36.2873C36.5585 59.1696 36.7885 59.3996 36.7885 59.6709ZM70.132 75.0275H56.7356C56.4643 75.0275 56.2352 74.798 56.2352 74.5058V51.7419C56.2352 51.4707 56.4643 51.2407 56.7356 51.2407H70.132C70.4241 51.2407 70.6536 51.4707 70.6536 51.7419V74.5058C70.6536 74.798 70.4241 75.0275 70.132 75.0275ZM53.2096 75.0275H39.8141C39.5219 75.0275 39.2924 74.798 39.2924 74.5058V42.7697C39.2924 42.4985 39.5219 42.2684 39.8141 42.2684H53.2096C53.5018 42.2684 53.7313 42.4985 53.7313 42.7697V74.5058C53.7313 74.798 53.5018 75.0275 53.2096 75.0275ZM31.5306 29.1859L28.6509 34.1724C28.3171 34.7566 28.5047 35.5293 29.1098 35.884C29.7149 36.2179 30.4868 36.0086 30.8206 35.4243L33.7003 30.4378C34.0341 29.8535 33.8256 29.0817 33.2414 28.727C32.6363 28.3931 31.8644 28.6016 31.5306 29.1859ZM45.3223 16.8751L43.2357 20.9024L38.7496 21.653C37.9776 21.7782 37.3514 22.3214 37.1219 23.0517C36.8924 23.782 37.0807 24.5749 37.6232 25.1382L40.7946 28.3724L40.127 32.8585C40.0019 33.6097 40.3354 34.3814 40.9405 34.8196C41.5664 35.2786 42.4012 35.3409 43.0898 35.007L47.1374 32.9629L51.2062 35.007C51.8948 35.3409 52.7092 35.2786 53.3352 34.8196C53.9611 34.3814 54.2741 33.6097 54.1698 32.8585L53.4811 28.3724L56.6737 25.1382C57.2162 24.5749 57.4036 23.782 57.1741 23.0517C56.9237 22.3214 56.2976 21.7782 55.5464 21.653L51.0603 20.9024L48.9737 16.8751C48.619 16.1866 47.9094 15.7691 47.1374 15.7691C46.3654 15.7691 45.677 16.1866 45.3223 16.8751ZM60.784 30.7923L64.8528 34.8611C65.3327 35.341 66.1256 35.341 66.6264 34.8611C67.1063 34.3604 67.1063 33.5675 66.6264 33.0876L62.5576 29.0188C62.0777 28.5389 61.2848 28.5389 60.784 29.0188C60.3041 29.5195 60.3041 30.3124 60.784 30.7923ZM47.1374 18.7946L49.1196 22.6132C49.3074 22.9679 49.6418 23.2181 50.0382 23.2807L54.2945 23.9906L51.269 27.0577C50.9768 27.329 50.8518 27.7249 50.9144 28.1214L51.5616 32.3785L47.7014 30.459C47.3467 30.2712 46.9289 30.2712 46.5742 30.459L42.7352 32.3785L43.3816 28.1214C43.4233 27.7249 43.2983 27.329 43.027 27.0577L40.0015 23.9906L44.2586 23.2807C44.6342 23.2181 44.9882 22.9679 45.1552 22.6132L47.1374 18.7946ZM30.6747 22.9474H24.9367C24.2481 22.9474 23.6848 23.5107 23.6848 24.1993C23.6848 24.8879 24.2481 25.4512 24.9367 25.4512H30.6747C31.3633 25.4512 31.9267 24.8879 31.9267 24.1993C31.9267 23.5107 31.3633 22.9474 30.6747 22.9474ZM63.6213 25.0959H69.3593C70.0479 25.0959 70.6113 24.5325 70.6113 23.8439C70.6113 23.1554 70.0479 22.592 69.3593 22.592H63.6213C62.9118 22.592 62.3693 23.1554 62.3693 23.8439C62.3693 24.5325 62.9118 25.0959 63.6213 25.0959ZM62.7663 18.8574L65.6247 13.8708C65.9794 13.2866 65.7709 12.5139 65.1658 12.1592C64.5816 11.8253 63.8092 12.0346 63.4754 12.6189L60.5957 17.6054C60.241 18.1897 60.4503 18.9615 61.0554 19.3162C61.6605 19.6501 62.4115 19.4416 62.7663 18.8574ZM33.4916 17.2509L29.444 13.1821C28.9432 12.7022 28.1503 12.7022 27.6704 13.1821C27.1696 13.6828 27.1696 14.4757 27.6704 14.9557L31.718 19.0245C32.2188 19.5044 33.0117 19.5044 33.4916 19.0245C33.9924 18.5237 33.9924 17.7308 33.4916 17.2509Z" fill="#FF267E"/>
</g>
<defs>
<filter id="filter0_f_221_5615" x="0" y="0" width="93.9004" height="99.0469" filterUnits="userSpaceOnUse" color-interpolation-filters="sRGB">
<feFlood flood-opacity="0" result="BackgroundImageFix"/>
<feBlend mode="normal" in="SourceGraphic" in2="BackgroundImageFix" result="shape"/>
<feGaussianBlur stdDeviation="6" result="effect1_foregroundBlur_221_5615"/>
</filter>
</defs>
</svg>
