<svg width="32" height="33" viewBox="0 0 32 33" fill="none" xmlns="http://www.w3.org/2000/svg">
<path fill-rule="evenodd" clip-rule="evenodd" d="M14.1158 18.4329H1.64866V32.6893H14.1158V18.4329ZM29.8353 18.4329H17.3681V32.6893H29.8353V18.4329ZM31.2984 9.32608H17.3681V15.7227H31.2984V9.32608ZM14.1158 9.32608H0.185547V15.7227H14.1158V9.32608ZM5.22704 7.53795C4.35976 5.8576 4.63078 3.68876 6.04011 2.27943C7.82888 0.544876 10.648 0.544876 12.4367 2.27943L15.742 5.64078L19.1022 2.27943C20.8368 0.544876 23.7114 0.544876 25.4459 2.27943C26.8553 3.68876 27.1263 5.8576 26.259 7.53795H21.9755L23.1676 6.34481C23.6013 5.85696 23.6013 5.09852 23.1676 4.61067C22.6798 4.12283 21.8684 4.12283 21.3805 4.61067L18.4522 7.53795H13.0317L10.1055 4.61067C9.61764 4.12283 8.85919 4.12283 8.37135 4.61067C7.8835 5.09852 7.8835 5.85696 8.37135 6.34481L9.50838 7.53795H5.22704Z" fill="#FF257E"/>
</svg>
